<?xml version="1.0" standalone="no"?><!DOCTYPE svg PUBLIC "-//W3C//DTD SVG 1.1//EN" "http://www.w3.org/Graphics/SVG/1.1/DTD/svg11.dtd"><svg t="1533212179027" class="icon" style="" viewBox="0 0 1024 1024" version="1.1" xmlns="http://www.w3.org/2000/svg" p-id="4200" xmlns:xlink="http://www.w3.org/1999/xlink" width="64" height="64"><defs><style type="text/css"></style></defs><path d="M512 100.693333C285.013333 100.693333 100.693333 285.013333 100.693333 512S285.013333 923.306667 512 923.306667 923.306667 738.986667 923.306667 512 738.986667 100.693333 512 100.693333zM512 887.466667C303.786667 887.466667 136.533333 718.506667 136.533333 512S305.493333 136.533333 512 136.533333c208.213333 0 375.466667 168.96 375.466667 375.466667s-167.253333 375.466667-375.466667 375.466667z" fill="#707070" p-id="4201"></path><path d="M512 423.253333c-11.946667 0-22.186667 10.24-22.186667 22.186667v264.533333c0 11.946667 10.24 22.186667 22.186667 22.186667 11.946667 0 22.186667-10.24 22.186667-22.186667V445.44c0-11.946667-10.24-22.186667-22.186667-22.186667z m0-133.12c-17.066667 0-30.72 13.653333-30.72 30.72 0 10.24 5.12 20.48 15.36 25.6 5.12 3.413333 10.24 3.413333 15.36 3.413334s10.24-1.706667 15.36-3.413334c8.533333-5.12 15.36-15.36 15.36-25.6 0-17.066667-13.653333-30.72-30.72-30.72z" fill="#707070" p-id="4202"></path></svg>