<?xml version="1.0" encoding="utf-8"?>
<svg version="1.1" xmlns="http://www.w3.org/2000/svg" xmlns:xlink="http://www.w3.org/1999/xlink" x="0px" y="0px"
	 viewBox="0 0 64 64" style="enable-background:new 0 0 64 64;" xml:space="preserve">
<path fill="#96588a" d="M13,54c0,1.8,1.5,3.3,3.3,3.3c1.8,0,3.3-1.5,3.3-3.3c0,0,0,0,0,0c0-1.8-1.5-3.3-3.3-3.3
	C14.5,50.7,13,52.2,13,54C13,54,13,54,13,54z"/>
<path fill="#96588a" d="M46.2,54c0,1.8,1.5,3.3,3.3,3.3c1.8,0,3.3-1.5,3.3-3.3l0,0c0-1.8-1.5-3.3-3.3-3.3C47.7,50.7,46.2,52.2,46.2,54z
	"/>
<path fill="#96588a" d="M54.9,18.9c-0.9-1.1-2.3-1.7-3.7-1.7H12.5L11,9.6c-0.3-2.4-2.4-4.3-4.9-4.3H3.5c-0.8,0-1.3,0.5-1.3,1.3
	S2.7,8,3.5,8h2.5c1.2,0,2.3,0.9,2.4,2.1l1.9,9.9l3.3,23.2c0.3,2.5,2.5,4.7,4.9,4.7h26.9l2.1,0.1c2.5,0,4.7-2,4.9-4.4l3.1-21.2
	C55.9,21.1,55.7,19.9,54.9,18.9z"/>
</svg>
