<?xml version="1.0" encoding="utf-8"?>
<svg version="1.1" xmlns="http://www.w3.org/2000/svg" xmlns:xlink="http://www.w3.org/1999/xlink" x="0px" y="0px" viewBox="0 0 64 64" style="enable-background:new 0 0 64 64;" xml:space="preserve">
<path fill="#96588a" d="M60.5,57.5l-4.7-4.3c1.7-2.1,2.7-4.7,2.7-7.6c0-6.8-5.6-12.2-12.5-12.2c-6.9,0-12.5,5.5-12.5,12.2
	c0,6.7,5.6,12.2,12.5,12.2c3.1,0,5.9-1.1,8.1-2.9l4.7,4.4c0.3,0.2,0.6,0.3,0.9,0.3c0.3,0,0.7-0.1,0.9-0.4C61,58.7,61,57.9,60.5,57.5
	z M46,55.3c-5.5,0-10-4.4-10-9.8c0-5.4,4.5-9.8,10-9.8c5.5,0,10,4.4,10,9.8C55.9,50.9,51.5,55.3,46,55.3z"/>
<path fill="#96588a" d="M13,5.9c-3.9,0-7,3.2-7,7v10.3c0,3.9,3.1,7,7,7h10.3c3.9,0,7-3.1,7-7V12.9c0-3.8-3.1-7-7-7H13z"/>
<path fill="#96588a" d="M41.1,5.9c-3.8,0-7,3.2-7,7v10.3c0,3.9,3.2,7,7,7h10.3c3.8,0,7-3.1,7-7V12.9c0-3.8-3.2-7-7-7H41.1z"/>
<path fill="#96588a" d="M13,34c-3.9,0-7,3.2-7,7v10.3c0,3.8,3.1,7,7,7h10.3c3.9,0,7-3.2,7-7V41c0-3.8-3.1-7-7-7H13z"/>
</svg>
