<?xml version="1.0" standalone="no"?><!DOCTYPE svg PUBLIC "-//W3C//DTD SVG 1.1//EN" "http://www.w3.org/Graphics/SVG/1.1/DTD/svg11.dtd"><svg t="1533212317720" class="icon" style="" viewBox="0 0 1024 1024" version="1.1" xmlns="http://www.w3.org/2000/svg" p-id="5044" xmlns:xlink="http://www.w3.org/1999/xlink" width="64" height="64"><defs><style type="text/css"></style></defs><path d="M390.736842 781.473684c-8.084211 0-13.473684-2.694737-18.863158-8.08421l-242.526316-242.526316c-10.778947-10.778947-10.778947-26.947368 0-37.726316s26.947368-10.778947 37.726316 0l242.526316 242.526316c10.778947 10.778947 10.778947 26.947368 0 37.726316-5.389474 5.389474-13.473684 8.084211-18.863158 8.08421z" fill="#ffffff" p-id="5045"></path><path d="M390.736842 781.473684c-8.084211 0-13.473684-2.694737-18.863158-8.08421-10.778947-10.778947-10.778947-26.947368 0-37.726316L859.621053 247.915789c10.778947-10.778947 26.947368-10.778947 37.726315 0s10.778947 26.947368 0 37.726316L409.6 776.084211c-5.389474 2.694737-13.473684 5.389474-18.863158 5.389473z" fill="#ffffff" p-id="5046"></path></svg>