<?xml version="1.0" standalone="no"?><!DOCTYPE svg PUBLIC "-//W3C//DTD SVG 1.1//EN" "http://www.w3.org/Graphics/SVG/1.1/DTD/svg11.dtd"><svg t="1533212728116" class="icon" style="" viewBox="0 0 1024 1024" version="1.1" xmlns="http://www.w3.org/2000/svg" p-id="2693" xmlns:xlink="http://www.w3.org/1999/xlink" width="64" height="64"><defs><style type="text/css"></style></defs><path d="M514.133 938.667c-6.4 0-10.666-2.134-14.933-6.4L394.667 825.6c-8.534-8.533-8.534-21.333 0-29.867 8.533-8.533 21.333-8.533 29.866 0l89.6 91.734 91.734-91.734c4.266-4.266 8.533-6.4 14.933-6.4h192c34.133 0 64-27.733 64-64V256c0-34.133-27.733-64-64-64H215.467c-34.134 0-64 27.733-64 64v469.333c0 36.267 27.733 64 64 64h108.8c12.8 0 21.333 8.534 21.333 21.334S337.067 832 324.267 832h-108.8C155.733 832 108.8 785.067 108.8 725.333V256c0-59.733 46.933-106.667 106.667-106.667H812.8c57.6 0 106.667 46.934 106.667 106.667v471.467c0 57.6-46.934 106.666-106.667 106.666H629.333L529.067 934.4c-4.267 2.133-10.667 4.267-14.934 4.267z" fill="#707070" p-id="2694"></path><path d="M309.333 533.333C279.467 533.333 256 509.867 256 480s23.467-53.333 53.333-53.333 53.334 23.466 53.334 53.333-23.467 53.333-53.334 53.333z m202.667 0c-29.867 0-53.333-23.466-53.333-53.333s23.466-53.333 53.333-53.333 53.333 23.466 53.333 53.333-23.466 53.333-53.333 53.333z m202.667 0c-29.867 0-53.334-23.466-53.334-53.333s23.467-53.333 53.334-53.333S768 450.133 768 480s-23.467 53.333-53.333 53.333z" fill="#707070" p-id="2695"></path></svg>