<?xml version="1.0" encoding="utf-8"?>
<!-- Generator: Adobe Illustrator 22.1.0, SVG Export Plug-In . SVG Version: 6.00 Build 0)  -->
<svg version="1.1" id="图层_1" xmlns="http://www.w3.org/2000/svg" xmlns:xlink="http://www.w3.org/1999/xlink" x="0px" y="0px"
	 viewBox="0 0 64 64" style="enable-background:new 0 0 64 64;" xml:space="preserve">
<style type="text/css">
	.st0{fill:#707070;}
</style>
<path class="st0" d="M32.1,57.4c-0.3,0-0.4-0.1-0.6-0.3l-6.3-6.4c-0.4-0.4-0.4-0.9,0-1.3c0.2-0.2,0.4-0.3,0.6-0.3
	c0.2,0,0.5,0.1,0.6,0.3l5.7,5.8l5.8-5.8c0.2-0.2,0.4-0.3,0.6-0.3h11.6c2.3,0,4.2-1.9,4.2-4.2V16.7c0-2.3-1.9-4.2-4.2-4.2h-36
	c-2.3,0-4.2,1.9-4.2,4.2v28.3c0,2.4,1.9,4.2,4.2,4.2h6.5c0.6,0,0.9,0.3,0.9,0.9c0,0.6-0.3,0.9-0.9,0.9h-6.5c-3.4,0-6-2.7-6-6V16.7
	c0-3.4,2.7-6,6-6h36c3.3,0,6,2.7,6,6V45c0,3.3-2.7,6-6,6H38.9l-6.1,6.1C32.6,57.3,32.3,57.4,32.1,57.4z"/>
<path class="st0" d="M44.2,32.2c-1.1,0-2-0.9-2-2s0.9-2,2-2s2,0.9,2,2S45.3,32.2,44.2,32.2z M32,32.2c-1.1,0-2-0.9-2-2s0.9-2,2-2
	c1.1,0,2,0.9,2,2S33.1,32.2,32,32.2z M19.8,32.2c-1.1,0-2-0.9-2-2s0.9-2,2-2s2,0.9,2,2S20.9,32.2,19.8,32.2z"/>
</svg>
