<?xml version="1.0" encoding="utf-8"?>
<!-- Generator: Adobe Illustrator 22.1.0, SVG Export Plug-In . SVG Version: 6.00 Build 0)  -->
<svg version="1.1" id="图层_1" xmlns="http://www.w3.org/2000/svg" xmlns:xlink="http://www.w3.org/1999/xlink" x="0px" y="0px"
	 viewBox="0 0 64 64" style="enable-background:new 0 0 64 64;" xml:space="preserve">
<style type="text/css">
	.st0{fill:#707070;}
</style>
<path class="st0" d="M59.9,32.2l-5.9-9.4c-1-1.6-2.8-2.6-4.7-2.6h-8.5v-4.9c0-3.1-2.5-5.5-5.5-5.5H8.8c-3.1,0-5.5,2.5-5.5,5.5V42
	c0,3.1,2.5,5.5,5.5,5.5h6.5v0.1c0,3.7,3,6.6,6.6,6.6s6.6-3,6.6-6.6v-0.1H43v0.1c0,3.7,3,6.6,6.6,6.6s6.6-3,6.6-6.6v-0.2
	c2.5-0.5,4.4-2.8,4.4-5.4v-6.8C60.8,34.1,60.5,33.1,59.9,32.2z M22,52c-2.4,0-4.4-2-4.4-4.4v-0.1c0-0.8,0.2-1.6,0.6-2.2
	c0.8-1.3,2.2-2.2,3.8-2.2c1.6,0,3,0.9,3.8,2.2c0.4,0.6,0.6,1.4,0.6,2.2v0.1C26.4,50,24.4,52,22,52z M38.7,22.7V42l0,3.3H28.2
	c-0.9-2.5-3.4-4.4-6.2-4.4s-5.3,1.8-6.2,4.4H8.8c-1.8,0-3.3-1.5-3.3-3.3V15.3C5.5,13.5,7,12,8.8,12h26.5c1.8,0,3.3,1.5,3.3,3.3v6.9
	C38.7,22.4,38.7,22.5,38.7,22.7z M49.7,52c-2.4,0-4.4-2-4.4-4.4v-0.1c0-0.8,0.2-1.6,0.6-2.2c0.8-1.3,2.2-2.2,3.8-2.2s3,0.9,3.8,2.2
	c0.4,0.6,0.6,1.4,0.6,2.2v0.1C54.1,50,52.1,52,49.7,52z M58.5,42c0,1.6-1.1,2.9-2.6,3.3c-0.9-2.5-3.4-4.3-6.2-4.3
	c-2.9,0-5.3,1.8-6.2,4.4h-2.5c0-0.8,0-2,0-3.3V22.4h8.5c1.2,0,2.2,0.6,2.8,1.6l5.9,9.4c0.3,0.5,0.5,1.1,0.5,1.8V42z"/>
<path class="st0" d="M33.1,21H19.8c-0.6,0-1.1-0.5-1.1-1.1c0-0.6,0.5-1.1,1.1-1.1h13.3c0.6,0,1.1,0.5,1.1,1.1
	C34.2,20.5,33.7,21,33.1,21z"/>
<path class="st0" d="M28.7,27.6H15.4c-0.6,0-1.1-0.5-1.1-1.1c0-0.6,0.5-1.1,1.1-1.1h13.3c0.6,0,1.1,0.5,1.1,1.1
	C29.8,27.1,29.3,27.6,28.7,27.6z"/>
<path class="st0" d="M24.2,34.2H11c-0.6,0-1.1-0.5-1.1-1.1S10.4,32,11,32h13.3c0.6,0,1.1,0.5,1.1,1.1S24.8,34.2,24.2,34.2z"/>
</svg>
