<?xml version="1.0" standalone="no"?><!DOCTYPE svg PUBLIC "-//W3C//DTD SVG 1.1//EN" "http://www.w3.org/Graphics/SVG/1.1/DTD/svg11.dtd"><svg t="1533214335883" class="icon" style="" viewBox="0 0 1024 1024" version="1.1" xmlns="http://www.w3.org/2000/svg" p-id="3441" xmlns:xlink="http://www.w3.org/1999/xlink" width="64" height="64"><defs><style type="text/css"></style></defs><path d="M915.2 413.866667c-4.266667-14.933333-19.2-25.6-34.133333-29.866667l-228.266667-34.133333-100.266667-215.466667c-6.4-14.933333-21.333333-25.6-38.4-25.6s-32 8.533333-38.4 23.466667l-106.666666 215.466666L142.933333 384c-14.933333 2.133333-27.733333 12.8-34.133333 27.733333-4.266667 14.933333-2.133333 32 10.666667 42.666667l166.4 172.8-38.4 238.933333c-2.133333 17.066667 4.266667 32 17.066666 42.666667 12.8 8.533333 32 10.666667 44.8 2.133333l202.666667-110.933333 202.666667 113.066667c6.4 4.266667 12.8 6.4 21.333333 6.4s17.066667-2.133333 23.466667-8.533334c12.8-8.533333 19.2-25.6 17.066666-40.533333l-38.4-241.066667 166.4-170.666666c10.666667-12.8 14.933333-29.866667 10.666667-44.8z" p-id="3442" fill="#FFD700"></path></svg>