<?xml version="1.0" standalone="no"?><!DOCTYPE svg PUBLIC "-//W3C//DTD SVG 1.1//EN" "http://www.w3.org/Graphics/SVG/1.1/DTD/svg11.dtd"><svg t="1533213042092" class="icon" style="" viewBox="0 0 1024 1024" version="1.1" xmlns="http://www.w3.org/2000/svg" p-id="3265" xmlns:xlink="http://www.w3.org/1999/xlink" width="64" height="64"><defs><style type="text/css"></style></defs><path d="M791.466667 106.666667H232.533333C187.733333 106.666667 149.333333 145.066667 149.333333 192v640c0 46.933333 38.4 85.333333 83.2 85.333333h558.933334c46.933333 0 83.2-38.4 83.2-85.333333V192c0-46.933333-36.266667-85.333333-83.2-85.333333zM832 832c0 23.466667-19.2 42.666667-40.533333 42.666667H232.533333c-21.333333 0-40.533333-19.2-40.533333-42.666667V192c0-23.466667 19.2-42.666667 40.533333-42.666667h558.933334c23.466667 0 40.533333 19.2 40.533333 42.666667v640z" p-id="3266" fill="#707070"></path><path d="M298.666667 533.333333h334.933333c12.8 0 21.333333-8.533333 21.333333-21.333333s-8.533333-21.333333-21.333333-21.333333H298.666667c-12.8 0-21.333333 8.533333-21.333334 21.333333s10.666667 21.333333 21.333334 21.333333zM725.333333 684.8H298.666667c-12.8 0-21.333333 8.533333-21.333334 21.333333s8.533333 21.333333 21.333334 21.333334h426.666666c12.8 0 21.333333-8.533333 21.333334-21.333334s-8.533333-21.333333-21.333334-21.333333z" p-id="3267" fill="#707070"></path><path d="M311.466667 309.333333m-32 0a32 32 0 1 0 64 0 32 32 0 1 0-64 0Z" p-id="3268" fill="#707070"></path><path d="M522.666667 309.333333m-32 0a32 32 0 1 0 64 0 32 32 0 1 0-64 0Z" p-id="3269" fill="#707070"></path><path d="M714.666667 309.333333m-32 0a32 32 0 1 0 64 0 32 32 0 1 0-64 0Z" p-id="3270" fill="#707070"></path></svg>