<?xml version="1.0" standalone="no"?><!DOCTYPE svg PUBLIC "-//W3C//DTD SVG 1.1//EN" "http://www.w3.org/Graphics/SVG/1.1/DTD/svg11.dtd"><svg t="1539678320372" class="icon" style="" viewBox="0 0 1024 1024" version="1.1" xmlns="http://www.w3.org/2000/svg" p-id="4887" xmlns:xlink="http://www.w3.org/1999/xlink" width="64" height="64"><defs><style type="text/css"></style></defs><path d="M791.466667 106.666667H232.533333C187.733333 106.666667 149.333333 145.066667 149.333333 192v640c0 46.933333 38.4 85.333333 83.2 85.333333h558.933334c46.933333 0 83.2-38.4 83.2-85.333333V192c0-46.933333-36.266667-85.333333-83.2-85.333333z m-76.8 170.666666c17.066667 0 32 14.933333 32 32s-14.933333 32-32 32-32-14.933333-32-32 14.933333-32 32-32z m-192 0c17.066667 0 32 14.933333 32 32s-14.933333 32-32 32-32-12.8-32-32c0-17.066667 14.933333-32 32-32z m-211.2 0c17.066667 0 32 14.933333 32 32s-14.933333 32-32 32-32-14.933333-32-32 12.8-32 32-32zM298.666667 490.666667h334.933333c12.8 0 21.333333 8.533333 21.333333 21.333333s-8.533333 21.333333-21.333333 21.333333H298.666667c-12.8 0-21.333333-8.533333-21.333334-21.333333s10.666667-21.333333 21.333334-21.333333z m426.666666 236.8H298.666667c-12.8 0-21.333333-8.533333-21.333334-21.333334s8.533333-21.333333 21.333334-21.333333h426.666666c12.8 0 21.333333 8.533333 21.333334 21.333333s-8.533333 21.333333-21.333334 21.333334z" p-id="4888" fill="#96588a"></path></svg>