<?xml version="1.0" standalone="no"?><!DOCTYPE svg PUBLIC "-//W3C//DTD SVG 1.1//EN" "http://www.w3.org/Graphics/SVG/1.1/DTD/svg11.dtd"><svg t="1533213122210" class="icon" style="" viewBox="0 0 1024 1024" version="1.1" xmlns="http://www.w3.org/2000/svg" p-id="5392" xmlns:xlink="http://www.w3.org/1999/xlink" width="64" height="64"><defs><style type="text/css"></style></defs><path d="M682.666667 405.333333c0-93.866667-76.8-170.666667-170.666667-170.666666s-170.666667 76.8-170.666667 170.666666 76.8 170.666667 170.666667 170.666667c96 0 170.666667-76.8 170.666667-170.666667z m-298.666667 0c0-70.4 57.6-128 128-128s128 57.6 128 128-57.6 128-128 128-128-57.6-128-128z" p-id="5393" fill="#707070"></path><path d="M512 64C324.266667 64 170.666667 217.6 170.666667 405.333333c0 117.333333 128 326.4 219.733333 439.466667 6.4 8.533333 21.333333 10.666667 29.866667 2.133333 8.533333-6.4 10.666667-21.333333 2.133333-29.866666-85.333333-106.666667-209.066667-311.466667-209.066667-411.733334 0-164.266667 134.4-298.666667 298.666667-298.666666s298.666667 134.4 298.666667 298.666666c0 166.4-311.466667 516.266667-313.6 518.4-8.533333 8.533333-6.4 21.333333 2.133333 29.866667 4.266667 4.266667 8.533333 6.4 14.933333 6.4 6.4 0 10.666667-2.133333 14.933334-6.4C541.866667 938.666667 853.333333 588.8 853.333333 405.333333c0-187.733333-151.466667-341.333333-341.333333-341.333333z" p-id="5394" fill="#707070"></path></svg>