<?xml version="1.0" standalone="no"?><!DOCTYPE svg PUBLIC "-//W3C//DTD SVG 1.1//EN" "http://www.w3.org/Graphics/SVG/1.1/DTD/svg11.dtd"><svg t="1533215987618" class="icon" style="" viewBox="0 0 1024 1024" version="1.1" xmlns="http://www.w3.org/2000/svg" p-id="3611" xmlns:xlink="http://www.w3.org/1999/xlink" width="64" height="64"><defs><style type="text/css"></style></defs><path d="M916.54738743 270.79374325L594.98783239 115.20985107c-17.41720001-8.48905535-46.10435134-8.48905535-63.52155137 0l-130.55581355 63.22882577L789.65065039 377.34602063v127.77491762l-67.76607903 32.78531711v-127.77491763L333.14438843 211.22399399l-123.09129867 59.56974926c-25.61352788 12.44085744-46.54344066 47.56798117-46.39707886 78.0114898l0.29272748 144.89939018c21.07627462-7.31815109 43.61618098-11.26995317 67.18062596-11.26995319 112.9922517 0 204.46913943 91.62325148 204.46913946 204.4691394 0 69.6687982-34.83439813 131.14126663-87.96417499 168.02474772L532.63718529 940.84364926c16.9781107 7.90360229 44.49435773 7.90360229 61.47246843 0l320.53501455-149.29027972c26.05261722-12.14812994 47.42161933-47.27525557 47.42161932-78.15785351l0.73181492-364.73664673c0.14636375-30.29714487-20.63718529-65.42427054-46.25071508-77.86512605z" p-id="3612" fill="#2196F3"></path><path d="M231.2757262 518.73269802c-92.79415574 0-168.17110954 75.23059197-168.17110955 168.17111142s75.23059197 168.17110954 168.17110955 168.17110958S399.30047389 779.69796332 399.30047389 686.90380944s-75.23059197-168.17110954-168.02474769-168.17111142zM283.67368812 712.66370107c8.48905535 0 15.51448085 7.0254255 15.51448086 15.51448087s-7.0254255 15.51448085-15.51448086 15.51447897h-36.88348109V776.91706737c0 8.48905535-7.0254255 15.51448085-15.51448083 15.51447894s-15.51448085-7.0254255-15.51447896-15.51447894v-33.22440646h-37.3225704c-8.48905535 0-15.51448085-7.0254255-15.51448085-15.51447897s7.0254255-15.51448085 15.51448085-15.51448087h37.3225704v-24.149898h-36.88348107c-8.48905535 0-15.51448085-7.0254255-15.51448085-15.51448086s7.0254255-15.51448085 15.51448085-15.51448088H203.17402797l-30.15078305-30.15078114c-6.00088309-6.00088309-6.00088309-15.95356828 0-21.95445329s15.95356828-6.00088309 21.95445331 0l35.85894053 35.85894057 35.56621307-35.56621499c6.00088309-6.00088309 15.95356828-6.00088309 21.9544533 0s6.00088309 15.95356828 0 21.95445329l-29.85805557 29.85805556h25.46716413c8.48905535 0 15.51448085 7.0254255 15.51448085 15.51448088s-7.0254255 15.51448085-15.51448085 15.51448086h-37.17620666v24.149898H283.67368812z" p-id="3613" fill="#2196F3"></path></svg>