<?xml version="1.0" standalone="no"?><!DOCTYPE svg PUBLIC "-//W3C//DTD SVG 1.1//EN" "http://www.w3.org/Graphics/SVG/1.1/DTD/svg11.dtd"><svg t="1533214210381" class="icon" style="" viewBox="0 0 1024 1024" version="1.1" xmlns="http://www.w3.org/2000/svg" p-id="3096" xmlns:xlink="http://www.w3.org/1999/xlink" width="64" height="64"><defs><style type="text/css"></style></defs><path d="M927.976528 511.74315c-29.736255 0.255827-175.450964-83.880409-180.029236-88.274486-11.059893-10.528797-6.92062-23.693632 4.3951-25.451672 11.277858-1.812275 74.670653-9.337669 74.670653-9.337669C788.047592 284.492426 701.110567 201.325261 586.961784 174.355003c-182.151573-43.047422-370.548384 79.06473-412.167271 265.428232-0.384763 1.574868-2.89391 20.599154-17.963117 19.995403-10.235109-0.421602-43.688012-13.732769-55.791677-19.391652-13.806447-6.481621-17.523095-4.797259-13.367449-25.653263C135.077953 177.815825 377.709993 18.093077 610.618577 72.731488c193.285145 45.336558 327.57464 213.078956 342.296947 404.148643C955.405227 502.478136 942.331467 511.596817 927.976528 511.74315zM623.766015 563.635007c19.153222 0 34.68087 15.527648 34.68087 34.679847 0 19.117406-15.527648 34.643008-34.68087 34.643008l-69.286016 0 0 43.287899c0 23.949458-19.373233 43.286875-43.304272 43.286875-23.895223 0-43.285852-19.336394-43.285852-43.286875l0-43.287899-69.305459 0c-19.116383 0-34.643008-15.525602-34.643008-34.643008 0-19.188015 15.526625-34.679847 34.643008-34.679847l69.305459 0 0-34.607192-69.305459 0c-19.116383 0-34.643008-15.526625-34.643008-34.643008 0-19.153222 15.526625-34.643008 34.643008-34.643008l69.305459 0 0-2.361791-76.867692-76.886111c-13.660114-13.603833-13.660114-35.687804 0-49.346895 13.603833-13.604856 35.687804-13.604856 49.311079 0l70.27453 70.275553 70.532403-70.532403c13.623275-13.623275 35.7052-13.623275 49.327452 0 13.623275 13.604856 13.623275 35.68678 0 49.346895l-75.987648 75.970252 0 3.5345 69.286016 0c19.153222 0 34.68087 15.490809 34.68087 34.643008 0 19.116383-15.527648 34.643008-34.68087 34.643008l-69.286016 0 0 34.607192L623.766015 563.635007zM276.23281 612.561323c15.179724 9.704013 11.555174 29.223578-5.180999 30.943756-16.679891 1.759063-68.993351 6.374174-68.993351 6.374174 41.472554 97.154737 125.462456 173.765579 234.153948 199.399399 182.171016 43.066865 368.425024-73.169463 410.099169-259.532965 0.841158-3.808746 0.805342-3.220345 2.307555-11.425214 1.465374-8.239662 3.918239-20.72809 19.957541-15.160281 16.003486 5.602601 55.115272 17.065677 67.310012 20.323884 12.193717 3.25923 10.838859 8.05649 9.301853 19.37221-0.440022 3.479241-1.172709 6.630001-1.905396 9.925047C888.755248 855.101265 651.414725 1006.309082 413.177785 950.387445 220.130048 905.087727 85.91423 737.767953 70.918701 546.973536c-2.032286-32.813337 21.11183-39.496549 44.805462-26.989701C134.32787 529.871019 261.03569 602.819448 276.23281 612.561323z" p-id="3097" fill="#F44336"></path></svg>