<?xml version="1.0" encoding="utf-8"?>
<!-- Generator: Adobe Illustrator 22.1.0, SVG Export Plug-In . SVG Version: 6.00 Build 0)  -->
<svg version="1.1" id="图层_1" xmlns="http://www.w3.org/2000/svg" xmlns:xlink="http://www.w3.org/1999/xlink" x="0px" y="0px"
	 viewBox="0 0 64 64" style="enable-background:new 0 0 64 64;" xml:space="preserve">
<style type="text/css">
	.st0{fill:#707070;}
</style>
<path class="st0" d="M50.6,40.5v8.2c0,1.5-1.3,2.7-3,2.7H11.5c-1.6,0-3-1.2-3-2.7V15.3c0-1.5,1.3-2.7,3-2.7h36.1c1.6,0,3,1.2,3,2.7
	v8.3h1.9v-8.3c0-2.5-2.2-4.4-4.8-4.4H11.5c-2.7,0-4.8,2-4.8,4.4v33.4c0,2.5,2.2,4.4,4.8,4.4h36.1c2.7,0,4.8-2,4.8-4.4v-8.2H50.6
	L50.6,40.5z"/>
<path class="st0" d="M54.3,38.4H31.6c-1.7,0-3-1.4-3-3.1v-6.6c0-1.7,1.3-3.1,3-3.1h22.7c1.7,0,3,1.4,3,3.1v6.6
	C57.3,37,56,38.4,54.3,38.4z M31.6,27.4c-0.6,0-1.1,0.6-1.1,1.4v6.6c0,0.7,0.5,1.4,1.1,1.4h22.7c0.6,0,1.1-0.6,1.1-1.4v-6.6
	c0-0.7-0.5-1.4-1.1-1.4L31.6,27.4L31.6,27.4z"/>
<path class="st0" d="M49.2,32c0,0.7,0.6,1.3,1.4,1.3S52,32.7,52,32c0-0.7-0.6-1.3-1.4-1.3C49.8,30.7,49.2,31.2,49.2,32z"/>
</svg>
