<?xml version="1.0" encoding="utf-8"?>
<!-- Generator: Adobe Illustrator 22.1.0, SVG Export Plug-In . SVG Version: 6.00 Build 0)  -->
<svg version="1.1" id="图层_1" xmlns="http://www.w3.org/2000/svg" xmlns:xlink="http://www.w3.org/1999/xlink" x="0px" y="0px"
	 viewBox="0 0 64 64" style="enable-background:new 0 0 64 64;" xml:space="preserve">
<style type="text/css">
	.st0{fill:#707070;}
</style>
<path class="st0" d="M12,27.5c-0.5,0-0.8-0.4-0.8-0.8s0.4-0.8,0.8-0.8h7.8c0.5,0,0.8,0.4,0.8,0.8s-0.4,0.8-0.8,0.8H12z"/>
<path class="st0" d="M10.3,53.2c-1.8,0-3.3-1.5-3.3-3.3V13.8c0-1.8,1.5-3.3,3.3-3.3h43.1c1.8,0,3.3,1.5,3.3,3.3v36.1
	c0,1.8-1.5,3.3-3.3,3.3H10.3z M8.6,49.9c0,0.9,0.7,1.6,1.6,1.6h43.1c0.8,0,1.5-0.6,1.6-1.3h0l0-0.3V22.8H40.5v14.1
	c0,0.3-0.2,0.6-0.4,0.7c-0.1,0.1-0.3,0.1-0.4,0.1c-0.1,0-0.3,0-0.4-0.1l-7.5-4.2l-7.4,4.1c-0.1,0.1-0.3,0.1-0.4,0.1
	c-0.1,0-0.3,0-0.4-0.1c-0.3-0.1-0.4-0.4-0.4-0.7V22.8H8.6V49.9z M24.8,35.5l7-4l7.1,4V12.1H24.8V35.5z M40.5,21.2H55l0-0.3v-7.1
	c0-0.9-0.7-1.6-1.6-1.6H40.5V21.2z M10.3,12.1c-0.9,0-1.6,0.7-1.6,1.6v7.4h14.5v-9.1H10.3z"/>
</svg>
