<?xml version="1.0" standalone="no"?><!DOCTYPE svg PUBLIC "-//W3C//DTD SVG 1.1//EN" "http://www.w3.org/Graphics/SVG/1.1/DTD/svg11.dtd"><svg t="1533217369640" class="icon" style="" viewBox="0 0 1024 1024" version="1.1" xmlns="http://www.w3.org/2000/svg" p-id="72098" xmlns:xlink="http://www.w3.org/1999/xlink" width="64" height="64"><defs><style type="text/css"></style></defs><path d="M21.546667 449.408C81.024 335.146667 120.106667 272.64 138.666667 261.973333c18.602667-10.752 92.245333-13.312 220.928-7.68a85.333333 85.333333 0 0 1 70.186666 42.581334l232.106667 402.005333a85.333333 85.333333 0 0 1-31.232 116.565333l-258.645333 149.333334a85.333333 85.333333 0 0 1-116.565334-31.232l-232.106666-402.005334a85.333333 85.333333 0 0 1-1.792-82.090666z m249.6 41.941333a66.645333 66.645333 0 0 0 24.917333-90.88 66.645333 66.645333 0 0 0-91.178667-23.850666 66.645333 66.645333 0 0 0-24.917333 90.88 66.645333 66.645333 0 0 0 91.178667 23.893333z" fill="#E1426F" p-id="72099"></path><path d="M300.202667 199.509333c27.050667-21.930667 85.973333-56.32 176.768-103.125333a85.333333 85.333333 0 0 1 81.749333 1.962667l414.890667 239.530666a85.333333 85.333333 0 0 1 31.274666 116.565334l-153.258666 265.386666a85.333333 85.333333 0 0 1-116.565334 31.232l-6.442666-3.754666a85.333333 85.333333 0 0 0 0.896-86.912l-239.530667-414.890667a85.333333 85.333333 0 0 0-69.845333-42.581333 2653.056 2653.056 0 0 0-119.893334-3.413334z" fill="#E1426F" p-id="72100"></path></svg>