<?xml version="1.0" standalone="no"?><!DOCTYPE svg PUBLIC "-//W3C//DTD SVG 1.1//EN" "http://www.w3.org/Graphics/SVG/1.1/DTD/svg11.dtd"><svg t="1533213397966" class="icon" style="" viewBox="0 0 1024 1024" version="1.1" xmlns="http://www.w3.org/2000/svg" p-id="5871" xmlns:xlink="http://www.w3.org/1999/xlink" width="64" height="64"><defs><style type="text/css"></style></defs><path d="M808.533333 565.333333c4.266667-10.666667 0-23.466667-10.666666-27.733333-10.666667-4.266667-23.466667 0-27.733334 10.666667-17.066667 34.133333-78.933333 53.333333-172.8 51.2-12.8 0-21.333333 8.533333-21.333333 21.333333s8.533333 21.333333 21.333333 21.333333h8.533334c110.933333 0 179.2-25.6 202.666666-76.8z" p-id="5872" fill="#707070"></path><path d="M861.866667 443.733333l-36.266667-14.933333C817.066667 262.4 680.533333 128 512 128 341.333333 128 202.666667 264.533333 198.4 433.066667l-19.2 14.933333c-6.4 2.133333-8.533333 8.533333-8.533333 14.933333V554.666667c0 12.8 8.533333 21.333333 21.333333 21.333333s21.333333-8.533333 21.333333-21.333333v-78.933334l19.2-14.933333c4.266667-4.266667 8.533333-10.666667 8.533334-17.066667C241.066667 292.266667 362.666667 170.666667 512 170.666667c149.333333 0 270.933333 121.6 270.933333 270.933333 0 8.533333 4.266667 17.066667 12.8 19.2l36.266667 14.933333V554.666667c0 12.8 8.533333 21.333333 21.333333 21.333333s21.333333-8.533333 21.333334-21.333333v-91.733334c0-8.533333-4.266667-14.933333-12.8-19.2z" p-id="5873" fill="#707070"></path><path d="M512 640c-106.666667 0-192-85.333333-192-192s85.333333-192 192-192 192 85.333333 192 192c0 12.8-2.133333 27.733333-4.266667 40.533333-2.133333 10.666667 4.266667 23.466667 17.066667 25.6 10.666667 2.133333 23.466667-4.266667 25.6-17.066666 4.266667-14.933333 4.266667-32 4.266667-49.066667 0-128-106.666667-234.666667-234.666667-234.666667s-234.666667 106.666667-234.666667 234.666667c0 89.6 51.2 168.533333 125.866667 206.933333-119.466667 32-204.8 119.466667-228.266667 236.8-2.133333 10.666667 4.266667 23.466667 17.066667 25.6h4.266667c10.666667 0 19.2-6.4 21.333333-17.066666C241.066667 768 354.133333 684.8 512 684.8c12.8 0 21.333333-8.533333 21.333333-21.333333s-10.666667-23.466667-21.333333-23.466667zM738.133333 686.933333c-8.533333-6.4-23.466667-6.4-29.866666 4.266667-6.4 8.533333-6.4 23.466667 4.266666 29.866667 44.8 34.133333 102.4 93.866667 119.466667 179.2 2.133333 10.666667 10.666667 17.066667 21.333333 17.066666h4.266667c10.666667-2.133333 19.2-12.8 17.066667-25.6-21.333333-98.133333-85.333333-166.4-136.533334-204.8z" p-id="5874" fill="#707070"></path></svg>