<?xml version="1.0" standalone="no"?><!DOCTYPE svg PUBLIC "-//W3C//DTD SVG 1.1//EN" "http://www.w3.org/Graphics/SVG/1.1/DTD/svg11.dtd"><svg t="1534737501313" class="icon" style="" viewBox="0 0 1024 1024" version="1.1" xmlns="http://www.w3.org/2000/svg" p-id="4908" xmlns:xlink="http://www.w3.org/1999/xlink" width="64" height="64"><defs><style type="text/css"></style></defs><path d="M778.666667 704c-42.666667 0-78.933333 21.333333-98.133334 55.466667l-296.533333-170.666667c12.8-21.333333 21.333333-49.066667 21.333333-76.8 0-14.933333-2.133333-29.866667-6.4-44.8l294.4-183.466667c21.333333 23.466667 51.2 38.4 85.333334 38.4 64 0 117.333333-53.333333 117.333333-117.333333s-53.333333-117.333333-117.333333-117.333333S661.333333 140.8 661.333333 204.8c0 14.933333 2.133333 29.866667 8.533334 42.666667l-290.133334 181.333333C352 390.4 307.2 362.666667 256 362.666667c-83.2 0-149.333333 66.133333-149.333333 149.333333s66.133333 149.333333 149.333333 149.333333c38.4 0 74.666667-14.933333 100.266667-38.4l307.2 174.933334h2.133333c-2.133333 6.4-2.133333 14.933333-2.133333 23.466666 0 64 53.333333 117.333333 117.333333 117.333334s117.333333-53.333333 117.333333-117.333334-53.333333-117.333333-119.466666-117.333333z m0-573.866667c40.533333 0 74.666667 34.133333 74.666666 74.666667s-34.133333 74.666667-74.666666 74.666667S704 245.333333 704 204.8s32-74.666667 74.666667-74.666667zM256 618.666667c-59.733333 0-106.666667-46.933333-106.666667-106.666667s46.933333-106.666667 106.666667-106.666667 106.666667 46.933333 106.666667 106.666667-49.066667 106.666667-106.666667 106.666667z m522.666667 277.333333c-40.533333 0-74.666667-34.133333-74.666667-74.666667s34.133333-74.666667 74.666667-74.666666 74.666667 34.133333 74.666666 74.666666-32 74.666667-74.666666 74.666667z" p-id="4909" fill="#707070"></path></svg>