<?xml version="1.0" standalone="no"?><!DOCTYPE svg PUBLIC "-//W3C//DTD SVG 1.1//EN" "http://www.w3.org/Graphics/SVG/1.1/DTD/svg11.dtd"><svg t="1534743974186" class="icon" style="" viewBox="0 0 1024 1024" version="1.1" xmlns="http://www.w3.org/2000/svg" p-id="9869" xmlns:xlink="http://www.w3.org/1999/xlink" width="64" height="64"><defs><style type="text/css"></style></defs><path d="M1019.471 512.174c0 280.346-227.265 507.611-507.611 507.611S4.248 792.52 4.248 512.174 231.514 4.563 511.86 4.563s507.611 227.265 507.611 507.611z" fill="#5AC64F" p-id="9870"></path><path d="M634.415 396.754c8.164 0 16.241 0.6 24.253 1.491-21.791-101.471-130.276-176.863-254.104-176.863-138.44 0-251.842 94.364-251.842 214.188 0 69.166 37.729 125.964 100.775 170.018l-25.189 75.76 88.04-44.149c31.502 6.235 56.778 12.647 88.216 12.647 7.903 0 15.739-0.39 23.51-1.001-4.92-16.838-7.771-34.474-7.771-52.772-0.001-110.026 94.483-199.319 214.112-199.319z m-135.412-68.283c18.962 0 31.525 12.475 31.525 31.426 0 18.875-12.562 31.525-31.525 31.525-18.875 0-37.815-12.649-37.815-31.525 0-18.951 18.939-31.426 37.815-31.426z m-176.255 62.951c-18.874 0-37.923-12.649-37.923-31.525 0-18.951 19.049-31.426 37.923-31.426 18.875 0 31.437 12.475 31.437 31.426 0 18.876-12.562 31.525-31.437 31.525z" fill="#FFFFFF" p-id="9871"></path><path d="M864.269 593.049c0-100.689-100.755-182.762-213.917-182.762-119.825 0-214.2 82.074-214.2 182.762 0 100.862 94.375 182.762 214.2 182.762 25.08 0 50.375-6.325 75.565-12.638L794.994 801l-18.94-62.938c50.551-37.924 88.215-88.215 88.215-145.013z m-283.366-31.514c-12.54 0-25.189-12.475-25.189-25.2 0-12.549 12.649-25.187 25.189-25.187 19.049 0 31.525 12.638 31.525 25.187-0.001 12.725-12.476 25.2-31.525 25.2z m138.527 0c-12.453 0-25.015-12.475-25.015-25.2 0-12.549 12.562-25.187 25.015-25.187 18.875 0 31.522 12.638 31.522 25.187 0 12.725-12.647 25.2-31.522 25.2z" fill="#FFFFFF" p-id="9872"></path></svg>