<?xml version="1.0" standalone="no"?><!DOCTYPE svg PUBLIC "-//W3C//DTD SVG 1.1//EN" "http://www.w3.org/Graphics/SVG/1.1/DTD/svg11.dtd"><svg t="1534744119452" class="icon" style="" viewBox="0 0 1024 1024" version="1.1" xmlns="http://www.w3.org/2000/svg" p-id="12983" xmlns:xlink="http://www.w3.org/1999/xlink" width="64" height="64"><defs><style type="text/css"></style></defs><path d="M671.50103094 60.55214656s-63.43228125-26.11713281-160.43321156-26.11713281c-97.00347 0-160.43067094 29.8475475-160.43067094 29.8475475L671.50103094 387.01249719v-326.46035063z" fill="#F1765A" p-id="12984"></path><path d="M844.989845 174.34502c-69.02112938-67.15846219-134.31607875-91.40700187-134.31607781-91.40700094l-1.86351375 453.31729313 231.31785469-231.31954781s-27.98064656-63.42974156-95.13826313-130.58735719v-0.00338719z" fill="#6C5AF1" p-id="12985"></path><path d="M953.1896375 353.4353825l-322.72993594 318.99867563v1.86266718h326.46034969s26.11713281-63.42720188 26.11713375-160.42813125c0-97.00600969-29.8475475-160.43321156-29.8475475-160.43321156z" fill="#5A9EF1" p-id="12986"></path><path d="M712.53643437 944.79324219s63.43228125-27.98572687 130.58989688-95.1433425c67.15761562-69.02112938 91.40700187-134.311845 91.40700188-134.311845l-453.31729407-1.8677475 231.32039531 231.322935z" fill="#5AE5F1" p-id="12987"></path><path d="M348.771095 636.98750281V963.44277312s63.42720188 26.12221312 160.42813125 26.12221313c97.00600969 0 160.43321156-29.84839406 160.43321063-29.84839406L350.63714844 636.98750281h-1.86605344z" fill="#5EF15A" p-id="12988"></path><path d="M179.01269469 849.64989969c69.02112938 67.15761562 134.31438469 91.40700187 134.31438469 91.40700187l1.86520781-453.31221375-231.31785469 231.31531407s27.98233969 63.43228125 95.14080187 130.58989781h-0.00253968z" fill="#BAF259" p-id="12989"></path><path d="M67.07994875 351.56509531s-26.11713281 63.42720188-26.11713375 160.43067094c0 97.00600969 29.8475475 160.42813125 29.8475475 160.42813125l322.72993594-320.86134187h-326.46034969v0.00253968z" fill="#F1DD5A" p-id="12990"></path><path d="M309.59581906 79.20675781s-63.42720188 26.11713281-130.5848175 95.14080282c-67.15846219 69.02112938-91.40700187 134.31353813-91.40700187 134.31353812l453.31729406 1.86605344-231.32124187-231.31785469-0.00423282-0.00253969z" fill="#F1B35A" p-id="12991"></path></svg>