<?xml version="1.0" encoding="utf-8"?>
<!-- Generator: Adobe Illustrator 22.1.0, SVG Export Plug-In . SVG Version: 6.00 Build 0)  -->
<svg version="1.1" id="图层_1" xmlns="http://www.w3.org/2000/svg" xmlns:xlink="http://www.w3.org/1999/xlink" x="0px" y="0px"
	 viewBox="0 0 64 64" style="enable-background:new 0 0 64 64;" xml:space="preserve">
<style type="text/css">
	.st0{fill:#707070;}
</style>
<path class="st0" d="M48.4,52.7c-3.2,0-5.9-2.5-6.2-5.7l0-0.1H26.5l0,0.1c-0.1,1.4-0.7,2.6-1.6,3.6c-1.1,1.2-2.6,2-4.3,2
	c-0.1,0-0.2,0-0.3,0c-1.5,0-3-0.6-4.1-1.6c-1.2-1.1-1.9-2.5-2-4.1l0-0.1h-3.8c-1.7,0-3-1.3-3-3v-9.3c0-0.4,0.4-0.8,0.8-0.8
	S9,34.2,9,34.6v9.3c0,0.8,0.6,1.4,1.4,1.4h3.9l0-0.1c0.2-1.1,0.7-2.1,1.5-2.9c1.1-1.2,2.6-2,4.3-2c0.1,0,0.2,0,0.3,0
	c1.6,0,3,0.6,4.1,1.6c1,0.9,1.7,2.1,1.9,3.4l0,0.1h13v-31c0-0.8-0.6-1.4-1.4-1.4H10.4c-0.8,0-1.4,0.6-1.4,1.4v1.3
	c0,0.4-0.4,0.8-0.8,0.8s-0.8-0.4-0.8-0.8v-1.3c0-1.7,1.3-3,3-3H38c1.7,0,3,1.3,3,3v3.3h12.4c3.6,0,6.5,2.9,6.5,6.5v20.3
	c0,1.4-1.1,2.5-2.5,2.5h-2.8l0,0.1c-0.3,3.1-2.8,5.5-5.8,5.7C48.6,52.7,48.5,52.7,48.4,52.7z M20.1,41.9c-1.2,0.1-2.4,0.6-3.2,1.5
	c-0.8,0.9-1.2,2.1-1.2,3.3c0.1,1.2,0.6,2.4,1.5,3.2c0.9,0.8,1.9,1.2,3.1,1.2c0.1,0,0.2,0,0.3,0c2.5-0.1,4.5-2.3,4.4-4.8
	c-0.1-1.2-0.6-2.4-1.5-3.2c-0.8-0.8-1.9-1.2-3.1-1.2C20.3,41.9,20.2,41.9,20.1,41.9z M48.2,41.9c-1.2,0.1-2.4,0.6-3.2,1.5
	c-0.8,0.9-1.2,2.1-1.2,3.3c0.1,2.5,2.1,4.4,4.6,4.4c0.1,0,0.2,0,0.3,0c2.5-0.1,4.5-2.3,4.4-4.8c-0.1-2.5-2.1-4.4-4.6-4.4
	C48.3,41.9,48.2,41.9,48.2,41.9z M48.4,40.3c2.9,0,5.5,2.1,6.1,5l0,0.1h2.9c0.5,0,0.9-0.4,0.9-0.9v-16h-8.9c-0.1,0-0.3,0-0.4-0.1
	l-1.1-0.7c-0.2-0.1-0.3-0.3-0.4-0.5c0-0.2,0-0.4,0.1-0.6c0.1-0.2,0.4-0.4,0.7-0.4c0.1,0,0.3,0,0.4,0.1l0.9,0.5l8.7,0v-2.8
	c0-2.7-2.2-4.9-4.9-4.9H41v26.1h1.3l0-0.1c0.6-2.8,2.9-4.8,5.7-5C48.2,40.3,48.3,40.3,48.4,40.3z"/>
<path class="st0" d="M4.9,31.8c-0.4,0-0.8-0.4-0.8-0.8c0-0.4,0.4-0.8,0.8-0.8h14.9c0.4,0,0.8,0.4,0.8,0.8c0,0.4-0.4,0.8-0.8,0.8H4.9
	z M7.2,28c-0.4,0-0.8-0.4-0.8-0.8s0.4-0.8,0.8-0.8h8.4c0.4,0,0.8,0.4,0.8,0.8S16.1,28,15.6,28H7.2z M8.8,24.2
	c-0.4,0-0.8-0.4-0.8-0.8s0.4-0.8,0.8-0.8h14.7c0.4,0,0.8,0.4,0.8,0.8s-0.4,0.8-0.8,0.8H8.8z M4.9,20.4c-0.4,0-0.8-0.4-0.8-0.8
	c0-0.4,0.4-0.8,0.8-0.8h12.8c0.4,0,0.8,0.4,0.8,0.8c0,0.4-0.4,0.8-0.8,0.8H4.9z"/>
</svg>
