<?xml version="1.0" standalone="no"?><!DOCTYPE svg PUBLIC "-//W3C//DTD SVG 1.1//EN" "http://www.w3.org/Graphics/SVG/1.1/DTD/svg11.dtd"><svg t="1535690909379" class="icon" style="" viewBox="0 0 1024 1024" version="1.1" xmlns="http://www.w3.org/2000/svg" p-id="6758" xmlns:xlink="http://www.w3.org/1999/xlink" width="64" height="64"><defs><style type="text/css"></style></defs><path d="M512 993.28c265.813333 0 481.28-215.466667 481.28-481.28 0-265.813333-215.466667-481.28-481.28-481.28C246.186667 30.72 30.72 246.186667 30.72 512c0 265.813333 215.466667 481.28 481.28 481.28zM512 1024C229.226667 1024 0 794.773333 0 512S229.226667 0 512 0s512 229.226667 512 512-229.226667 512-512 512z" fill="#707070" p-id="6759"></path><path d="M747.221333 781.44a15.36 15.36 0 1 1-28.373333 11.776 215.381333 215.381333 0 0 0-46.677333-69.76 214.272 214.272 0 0 0-152.042667-62.976c-57.813333 0-112 22.912-152.064 62.976a215.381333 215.381333 0 0 0-46.677333 69.76 15.36 15.36 0 1 1-28.373334-11.776 246.101333 246.101333 0 0 1 53.333334-79.701333 244.992 244.992 0 0 1 173.781333-71.978667c66.048 0 128 26.197333 173.76 71.978667a246.101333 246.101333 0 0 1 53.333333 79.701333z" fill="#707070" p-id="6760"></path><path d="M307.2 399.36m-51.2 0a51.2 51.2 0 1 0 102.4 0 51.2 51.2 0 1 0-102.4 0Z" fill="#707070" p-id="6761"></path><path d="M716.8 399.36m-51.2 0a51.2 51.2 0 1 0 102.4 0 51.2 51.2 0 1 0-102.4 0Z" fill="#707070" p-id="6762"></path></svg>