<?xml version="1.0" encoding="utf-8"?>
<!-- Generator: Adobe Illustrator 22.1.0, SVG Export Plug-In . SVG Version: 6.00 Build 0)  -->
<svg version="1.1" id="图层_1" xmlns="http://www.w3.org/2000/svg" xmlns:xlink="http://www.w3.org/1999/xlink" x="0px" y="0px"
	 viewBox="0 0 64 64" style="enable-background:new 0 0 64 64;" xml:space="preserve">
<style type="text/css">
	.st0{fill:#707070;}
</style>
<path class="st0" d="M45.9,44.2L21.8,20.1l21.3,0.2c0.7,0,1.3-0.6,1.3-1.3s-0.6-1.3-1.3-1.3l-24.4-0.1c-0.7,0-1.3,0.6-1.3,1.3
	c0,0,0.1,0.1,0,0.1l-0.1,24.4c0,0.4,0.2,0.8,0.4,0.9c0.3,0.3,0.6,0.4,0.9,0.4c0.7,0,1.3-0.6,1.3-1.3L20,22l24,24
	c0.6,0.6,1.3,0.6,1.8,0C46.6,45.6,46.5,44.8,45.9,44.2z"/>
</svg>
