<?xml version="1.0" encoding="utf-8"?>
<!-- Generator: Adobe Illustrator 22.1.0, SVG Export Plug-In . SVG Version: 6.00 Build 0)  -->
<svg version="1.1" id="图层_1" xmlns="http://www.w3.org/2000/svg" xmlns:xlink="http://www.w3.org/1999/xlink" x="0px" y="0px"
	 viewBox="0 0 64 64" style="enable-background:new 0 0 64 64;" xml:space="preserve">
<style type="text/css">
	.st0{fill:#707070;}
</style>
<path class="st0" d="M33.2,50.7V16.6l14.9,15.2c0.5,0.5,1.3,0.5,1.9,0s0.5-1.3,0-1.9L32.8,12.6c-0.5-0.5-1.3-0.5-1.9,0
	c0,0,0,0.1-0.1,0.1L13.5,29.9c-0.3,0.3-0.4,0.7-0.4,0.9c0,0.4,0.1,0.7,0.4,0.9c0.5,0.5,1.3,0.5,1.9,0l15.2-15.1v34
	c0,0.8,0.5,1.3,1.3,1.3C32.7,52.1,33.2,51.5,33.2,50.7z"/>
</svg>
